<?xml version="1.0" encoding="utf-8"?>
<!-- Generator: Adobe Illustrator 26.0.1, SVG Export Plug-In . SVG Version: 6.00 Build 0)  -->
<svg version="1.1" id="Layer_1" xmlns="http://www.w3.org/2000/svg" xmlns:xlink="http://www.w3.org/1999/xlink" x="0px" y="0px"
	 viewBox="0 0 53 28" style="enable-background:new 0 0 53 28;" xml:space="preserve">
<path fill="#F47847" class="st0" d="M39,0c7.7,0,14,6.3,14,14s-6.3,14-14,14H14C6.3,28,0,21.7,0,14S6.3,0,14,0H39z"/>
<path fill="#FFFFFF" class="st1" d="M37.4,21.7L27.9,5.4c-0.5-0.8-1.5-1.1-2.2-0.6c-0.3,0.1-0.5,0.4-0.6,0.6l-9.4,16.3c-0.3,0.5-0.1,1.2,0.4,1.5
	c0.2,0.1,0.4,0.1,0.5,0.1h19.8c0.6,0,1.1-0.5,1.1-1.1C37.5,22.1,37.5,21.9,37.4,21.7z M26.5,20.2c-0.5,0-0.9-0.4-0.9-0.9
	c0-0.5,0.4-0.9,0.9-0.9s0.9,0.4,0.9,0.9C27.4,19.8,27,20.2,26.5,20.2z M27.4,16.1c0,0.5-0.4,0.9-0.9,0.9s-0.9-0.4-0.9-0.9v-5
	c0-0.5,0.4-0.9,0.9-0.9s0.9,0.4,0.9,0.9V16.1z"/>
</svg>
