<?xml version="1.0" encoding="utf-8"?>
<!-- Generator: Adobe Illustrator 26.0.1, SVG Export Plug-In . SVG Version: 6.00 Build 0)  -->
<svg version="1.1" id="Layer_1" xmlns="http://www.w3.org/2000/svg" xmlns:xlink="http://www.w3.org/1999/xlink" x="0px" y="0px"
	 viewBox="0 0 63 58" style="enable-background:new 0 0 63 58;" xml:space="preserve">
<path fill="#F47847" class="st0" d="M63,0v58H0V0H63z"/>
<path fill="#FFFFFF" class="st1" d="M55.2,45.9L34.6,10.3c-1-1.7-3.2-2.3-4.9-1.3c-0.6,0.3-1,0.8-1.3,1.3L7.8,45.9c-0.7,1.1-0.3,2.6,0.9,3.3
	c0.4,0.2,0.8,0.3,1.2,0.3h43.2c1.3,0,2.4-1.1,2.4-2.4C55.5,46.7,55.4,46.3,55.2,45.9z M31.5,42.5c-1.1,0-2-0.9-2-2c0-1.1,0.9-2,2-2
	s2,0.9,2,2C33.5,41.6,32.6,42.5,31.5,42.5z M33.5,33.5c0,1.1-0.9,2-2,2s-2-0.9-2-2v-11c0-1.1,0.9-2,2-2s2,0.9,2,2V33.5z"/>
</svg>
