<?xml version="1.0" encoding="utf-8"?>
<!-- Generator: Adobe Illustrator 26.0.1, SVG Export Plug-In . SVG Version: 6.00 Build 0)  -->
<svg version="1.1" id="Layer_1" xmlns="http://www.w3.org/2000/svg" xmlns:xlink="http://www.w3.org/1999/xlink" x="0px" y="0px"
	 viewBox="0 0 53 28" style="enable-background:new 0 0 53 28;" xml:space="preserve">
<path fill="#982B56" class="st0" d="M39,0c7.7,0,14,6.3,14,14s-6.3,14-14,14H14C6.3,28,0,21.7,0,14S6.3,0,14,0H39z"/>
<g>
	<path fill="#FFFFFF" class="st1" d="M19.9,26.5c0.5,0,0.9-0.4,0.9-0.9v-8.1l2.2,2.2c0.3,0.4,0.9,0.4,1.3,0c0.4-0.3,0.4-0.9,0-1.3l0,0l-3.7-3.7
		c-0.4-0.4-0.9-0.4-1.3,0l-3.7,3.7c-0.3,0.4-0.3,1,0,1.3c0.4,0.3,0.9,0.3,1.3,0l2.2-2.2v8.1C19,26.1,19.4,26.5,19.9,26.5z"/>
	<path fill="#FFFFFF" class="st1" d="M33.7,14.6c-0.4-0.4-0.9-0.4-1.3,0l-3.7,3.7c-0.3,0.4-0.3,1,0,1.3s0.9,0.3,1.3,0l2.2-2.2v8.1
		c0,0.5,0.4,0.9,0.9,0.9c0.5,0,0.9-0.4,0.9-0.9v-8l2.2,2.2c0.3,0.4,0.9,0.4,1.3,0c0.4-0.3,0.4-0.9,0-1.3l0,0L33.7,14.6z"/>
	<path fill="#FFFFFF" class="st1" d="M33.3,11.9L27.5,2c-0.3-0.5-0.9-0.7-1.4-0.4C26,1.7,25.9,1.8,25.8,2l-5.8,10c-0.2,0.3-0.1,0.7,0.2,0.9
		c0.1,0,0.2,0.1,0.3,0.1h12.1c0.4,0,0.7-0.3,0.7-0.7C33.4,12.2,33.3,12,33.3,11.9z M26.6,11c-0.3,0-0.6-0.2-0.6-0.6
		c0-0.3,0.2-0.6,0.6-0.6c0.3,0,0.6,0.2,0.6,0.6l0,0C27.2,10.7,26.9,11,26.6,11L26.6,11z M27.2,8.5c0,0.3-0.2,0.6-0.5,0.6
		S26.1,8.9,26,8.6c0,0,0,0,0-0.1V5.4c0-0.3,0.2-0.6,0.5-0.6c0.3,0,0.6,0.2,0.6,0.5c0,0,0,0,0,0.1V8.5z"/>
</g>
</svg>
