<?xml version="1.0" encoding="utf-8"?>
<!-- Generator: Adobe Illustrator 26.0.1, SVG Export Plug-In . SVG Version: 6.00 Build 0)  -->
<svg version="1.1" id="Layer_1" xmlns="http://www.w3.org/2000/svg" xmlns:xlink="http://www.w3.org/1999/xlink" x="0px" y="0px"
	 viewBox="0 0 53 28" style="enable-background:new 0 0 53 28;" xml:space="preserve">
<path fill="#EF404C" class="st0" d="M39,0c7.7,0,14,6.3,14,14s-6.3,14-14,14H14C6.3,28,0,21.7,0,14S6.3,0,14,0H39z"/>
<g>
	<path fill="#FFFFFF" class="st1" d="M32.2,9h4.6c0.4,0,0.7-0.3,0.7-0.7c0-0.4-0.3-0.7-0.7-0.7h-2.9l3.4-3.4c0.3-0.3,0.3-0.7,0-1s-0.7-0.3-1,0
		l-3.4,3.4V3.7c0-0.4-0.3-0.7-0.7-0.7c-0.4,0-0.7,0.3-0.7,0.7v4.6C31.5,8.6,31.8,9,32.2,9L32.2,9z"/>
	<path fill="#FFFFFF" class="st1" d="M15.5,8.3c0,0.4,0.3,0.7,0.7,0.7l0,0h4.6c0.4,0,0.7-0.3,0.7-0.7l0,0V3.7c0-0.4-0.3-0.7-0.7-0.7
		c-0.4,0-0.7,0.3-0.7,0.7v2.9l-3.4-3.4c-0.3-0.3-0.7-0.3-1,0s-0.3,0.7,0,1l3.4,3.4h-2.9C15.8,7.6,15.5,7.9,15.5,8.3z"/>
	<path fill="#FFFFFF" class="st1" d="M37.5,19.7c0-0.4-0.3-0.7-0.7-0.7h-4.6c-0.4,0-0.7,0.3-0.7,0.7v4.6c0,0.4,0.3,0.7,0.7,0.7
		c0.4,0,0.7-0.3,0.7-0.7v-2.9l3.4,3.4c0.1,0.1,0.3,0.2,0.5,0.2s0.4-0.1,0.5-0.2c0.3-0.3,0.3-0.7,0-1l0,0l-3.4-3.4h2.9
		C37.2,20.4,37.5,20.1,37.5,19.7z"/>
	<path fill="#FFFFFF" class="st1" d="M20.8,19h-4.6c-0.4,0-0.7,0.3-0.7,0.7s0.3,0.7,0.7,0.7h2.9l-3.4,3.4c-0.3,0.3-0.3,0.7,0,1l0,0
		c0.1,0.1,0.3,0.2,0.5,0.2s0.4-0.1,0.5-0.2l3.4-3.4v2.9c0,0.4,0.3,0.7,0.7,0.7s0.7-0.3,0.7-0.7v-4.6C21.5,19.4,21.1,19,20.8,19z"/>
	<path fill="#FFFFFF" class="st1" d="M32.9,16.8l-5.6-9.8c-0.3-0.5-0.9-0.6-1.3-0.4c-0.1,0.1-0.3,0.2-0.4,0.4L20,16.8c-0.2,0.3-0.1,0.7,0.2,0.9
		c0.1,0,0.2,0.1,0.3,0.1h11.8c0.4,0,0.6-0.3,0.6-0.6C33,17.1,33,16.9,32.9,16.8z M26.5,15.9c-0.3,0-0.5-0.2-0.5-0.5
		c0-0.3,0.2-0.5,0.5-0.5s0.5,0.2,0.5,0.5l0,0C27,15.7,26.8,15.9,26.5,15.9z M27,13.5c0,0.3-0.2,0.5-0.5,0.5s-0.5-0.2-0.5-0.5v-3
		c0-0.3,0.2-0.5,0.5-0.5s0.5,0.2,0.5,0.5V13.5z"/>
</g>
</svg>
